<svg width="29" height="26" viewBox="0 0 29 26" fill="none" xmlns="http://www.w3.org/2000/svg">
<path d="M2.01599 0.162109H6.84412C7.28609 0.162283 7.67814 0.457724 7.80505 0.873047L7.82751 0.958008L7.99548 1.75195L8.01306 1.83105H8.09314L27.8431 1.89648C27.9872 1.89733 28.1297 1.92993 28.2601 1.99121C28.3578 2.03714 28.4472 2.09851 28.5248 2.17285L28.598 2.25195C28.7615 2.44773 28.8415 2.69766 28.8246 2.94922L28.8109 3.05762L26.6605 15.0918C26.5806 15.5335 26.2167 15.8605 25.7787 15.8994L25.6908 15.9033L10.1654 15.9316H10.1029L10.0756 15.9873L9.14099 17.8906L9.07068 18.0342H27.8402C28.1061 18.0343 28.3616 18.1397 28.5502 18.3271C28.715 18.4911 28.817 18.7064 28.8412 18.9355L28.847 19.0352C28.8466 19.5886 28.3949 20.0369 27.8441 20.0371H24.1039L24.223 20.1973C24.6229 20.7335 24.847 21.3907 24.847 22.0654C24.847 23.779 23.4541 25.1719 21.7406 25.1719C20.0271 25.1719 18.6342 23.779 18.6342 22.0654L18.6439 21.8135C18.691 21.2293 18.9036 20.6682 19.2582 20.1973L19.3783 20.0371H13.9447L14.0638 20.1973C14.4637 20.7334 14.6878 21.3907 14.6879 22.0654C14.6879 23.7789 13.2949 25.1718 11.5814 25.1719C9.8679 25.1719 8.47498 23.779 8.47498 22.0654L8.48474 21.8135C8.53185 21.2293 8.74443 20.6682 9.099 20.1973L9.21912 20.0371H7.05603C6.72294 20.037 6.41802 19.8747 6.23279 19.6074L6.1615 19.4863L6.16052 19.4854L6.10583 19.3584C6.06049 19.2283 6.04283 19.0895 6.05408 18.9512C6.06913 18.7665 6.1352 18.5893 6.24548 18.4404L6.24646 18.4414L6.25134 18.4336L8.58826 14.6182L8.60876 14.584L8.60095 14.5449L6.78552 5.75488L6.04822 2.24805L6.03162 2.16895H2.01599C1.78327 2.16895 1.55873 2.08759 1.38025 1.94141L1.30603 1.875C1.11806 1.68698 1.01219 1.43187 1.01208 1.16602L1.01697 1.06641C1.03651 0.869689 1.11439 0.683222 1.23962 0.530273L1.30603 0.456055C1.47063 0.291455 1.68675 0.189799 1.91638 0.166992L2.01599 0.162109ZM11.5814 20.9785C10.9825 20.9785 10.4936 21.4665 10.4935 22.0654C10.4935 22.6644 10.9824 23.1533 11.5814 23.1533C11.8696 23.1533 12.1461 23.0387 12.35 22.835C12.5539 22.631 12.6683 22.3539 12.6683 22.0654C12.6682 21.4666 12.1802 20.9786 11.5814 20.9785ZM21.7406 20.9785C21.1417 20.9785 20.6528 21.4665 20.6527 22.0654C20.6527 22.6644 21.1416 23.1533 21.7406 23.1533C22.0288 23.1533 22.3052 23.0387 22.5092 22.835C22.7131 22.631 22.8285 22.3539 22.8285 22.0654C22.8284 21.4665 22.3395 20.9785 21.7406 20.9785ZM8.45544 3.92676L10.5521 13.8799L10.5687 13.96L10.6498 13.959L24.7845 13.9346H24.8685L24.8832 13.8516L26.6449 3.9834L26.6664 3.86621L26.5472 3.86523L8.5531 3.80664L8.43005 3.80566L8.45544 3.92676Z" fill="#0069B4" stroke="white" stroke-width="0.2"/>
</svg>
